/vscmnt/brussel_pixiu_data/_data_brussel/112/vsc11236/PredSimResults/SUBJ11opt3D/trackIG/worker_04.mot
version=1
nRows=4
nColumns=50
inDegrees=yes
endheader
                time	         pelvis_tilt	         pelvis_list	     pelvis_rotation	           pelvis_tx	           pelvis_ty	           pelvis_tz	       hip_flexion_r	     hip_adduction_r	      hip_rotation_r	        knee_angle_r	       ankle_angle_r	         mtp_angle_r	       hip_flexion_l	     hip_adduction_l	      hip_rotation_l	        knee_angle_l	       ankle_angle_l	         mtp_angle_l	    lumbar_extension	      lumbar_bending	     lumbar_rotation	 ercspn_r/activation	 intobl_r/activation	 extobl_r/activation	    abd_r/activation	    add_r/activation	hamstrings_r/activation	bifemsh_r/activation	glut_max_r/activation	iliopsoas_r/activation	rect_fem_r/activation	  vasti_r/activation	gastroc_r/activation	 soleus_r/activation	tib_ant_r/activation	 ercspn_l/activation	 intobl_l/activation	 extobl_l/activation	    abd_l/activation	    add_l/activation	hamstrings_l/activation	bifemsh_l/activation	glut_max_l/activation	iliopsoas_l/activation	rect_fem_l/activation	  vasti_l/activation	gastroc_l/activation	 soleus_l/activation	tib_ant_l/activation	
          1.52039631	         -2.55212008	         -0.55414223	          5.75654864	          1.36835668	          0.94828613	         -0.00824265	         29.92962081	         -2.42511059	         -3.20385922	        -10.25638739	          0.96144374	          0.20646466	        -11.70376895	         -2.53887156	         -2.84951451	        -12.60816993	         13.40234579	         26.13264831	        -14.74986562	         -3.23667939	         -2.89291124	          0.01406528	          0.25992805	          0.07508778	          0.00999999	          0.14636164	          0.02562838	          0.05758787	          0.02173283	          0.09771470	          0.04863230	          0.01816592	          0.01000000	          0.00999999	          0.36255615	          0.01000001	          0.01000000	          0.01000000	          0.04859881	          0.01000003	          0.01434697	          0.15729825	          0.01899254	          0.03877371	          0.01000009	          0.01000000	          0.13590063	          0.29641103	          0.01277373	
          1.53560027	         -2.72541011	         -0.57579379	          5.69144134	          1.38571176	          0.94606408	         -0.00636576	         29.47137298	         -2.18512672	         -3.43517307	        -10.67789868	          0.43573650	          0.22396802	        -12.23510414	         -2.74994464	         -3.35359822	        -13.24580648	         12.84759810	         27.74221218	        -14.32057661	         -2.76508218	         -3.15977011	          0.01122171	          0.20737850	          0.05990730	          0.00999999	          0.14682108	          0.03719501	          0.04594540	          0.05884893	          0.07795975	          0.03880033	          0.01449333	          0.01253501	          0.01354968	          0.37726678	          0.01000009	          0.01000001	          0.01000004	          0.03877360	          0.01253399	          0.01482048	          0.12549731	          0.01857090	          0.03093485	          0.01000001	          0.01000002	          0.11054156	          0.28249201	          0.01019127	
          1.55080424	         -2.87597623	         -0.61893402	          5.60925417	          1.40358146	          0.94412229	         -0.00441688	         28.96036245	         -1.95979773	         -3.60946971	        -11.32810186	         -0.12914640	          0.20799441	        -12.68545852	         -2.99809438	         -3.86139746	        -14.10054008	         12.14196101	         29.42285839	        -13.84623629	         -2.25424527	         -3.42850908	          0.01570387	          0.16545285	          0.04779586	          0.05160104	          0.16340349	          0.04194854	          0.03665666	          0.07961653	          0.06219865	          0.03095608	          0.01981509	          0.01000081	          0.01081035	          0.44271200	          0.01000000	          0.00999999	          0.01000002	          0.03093475	          0.01000001	          0.01182423	          0.10012557	          0.01481643	          0.02468076	          0.01000014	          0.01000000	          0.08819340	          0.26261979	          0.00999999	
          1.56600820	         -3.00550001	         -0.65737551	          5.49760237	          1.42163127	          0.94273909	         -0.00237285	         28.50291508	         -1.75870590	         -3.87175775	        -12.05883421	         -0.92527551	          0.18089792	        -12.93642602	         -3.25910987	         -4.37485167	        -15.32887256	         11.22155618	         31.20557847	        -13.36850590	         -1.74141971	         -3.68628794	          0.02143017	          0.13200330	          0.03813299	          0.08174011	          0.18742906	          0.04599920	          0.02924583	          0.06352052	          0.04962397	          0.02469771	          0.06755511	          0.01000000	          0.00999999	          0.50232186	          0.01750763	          0.01000000	          0.01000000	          0.02468068	          0.01000002	          0.02082061	          0.07988321	          0.01304637	          0.01969107	          0.01000005	          0.01122032	          0.07036337	          0.23865415	          0.00999999	
